:SAMPLES-PER-SECOND 30
:FULLY-SPECIFIED
:DEGREES
346
root  -84.6291 40.8611 -0.208607 178.141 -53.8798 177.257
RightUpLeg  -0.624239 0.433277 -0.0659332
RightLeg  19.5952 26.0455 6.64248
RightFoot  -5.74799 0.129654 -3.4455
RightToes  -6.40286e-010 0 -3.6325e-017
Spine  -4.34247 0.316729 9.59331
Spine1  9.29789 0.303748 0.124762
HEad  -26.5189 -55.99 -28.0239
LeftShoulder1  -0.418322 4.62905 -31.0189
LeftArm  -7.84558 6.76342 -42.5242
LeftForeArm  30.9694 -8.81041 -6.77975
LeftHand  -0.0470316 9.19446 0.103175
RightShoulder  -1.12074 -6.55203 30.1782
RightArm  13.894 7.52243 33.3515
RightForeArm  11.6785 9.24135 6.95496
RightHand  0.011229 5.74196 -0.22156
LeftUpLeg  -5.53194 -8.24669 0.833594
LeftLeg  27.115 -9.15274 -4.72579
LeftFoot  -7.70649 0.293697 -7.87201
LeftToes  1.32783e-010 1.73515e-011 1.59258e-011
347
root  -84.7903 40.9656 -0.12032 178.846 -50.9091 177.498
RightUpLeg  -1.80372 3.50831 -0.230437
RightLeg  19.4644 26.4381 7.14534
RightFoot  -4.73959 0.15468 -3.23519
RightToes  -6.40286e-010 0 -3.6325e-017
Spine  -5.00876 0.579824 11.6468
Spine1  9.13055 1.00028 -3.0471
HEad  -27.0298 -57.6295 -26.7325
LeftShoulder1  -0.385618 4.60103 -29.0062
LeftArm  -8.21615 8.61062 -43.9185
LeftForeArm  30.409 -8.88419 -6.60497
LeftHand  -0.0218902 8.7107 0.859582
RightShoulder  -1.40331 -7.0995 32.5558
RightArm  14.408 10.1236 30.9009
RightForeArm  9.35851 10.0287 7.0629
RightHand  -0.0518987 5.10609 -0.866845
LeftUpLeg  -4.91359 -14.352 -0.84637
LeftLeg  22.8205 -10.8386 -4.66309
LeftFoot  -7.18383 0.199257 -4.18382
LeftToes  1.32783e-010 1.73515e-011 1.59258e-011
348
root  -84.8941 41.0367 -0.044153 179.184 -47.7787 178.268
RightUpLeg  -2.91247 6.34089 -0.126487
RightLeg  18.8763 27.1539 7.57723
RightFoot  -3.83455 0.158989 -2.82481
RightToes  -6.40286e-010 0 -3.6325e-017
Spine  -4.51674 0.828655 11.9951
Spine1  7.56563 1.12296 -3.45331
HEad  -27.211 -59.1006 -25.1184
LeftShoulder1  -0.4243 4.71683 -28.7561
LeftArm  -8.45922 11.7012 -44.7991
LeftForeArm  30.363 -11.1228 -6.02109
LeftHand  -0.0401153 8.83539 0.372007
RightShoulder  -1.37664 -6.99308 32.7684
RightArm  14.4733 10.9473 29.9867
RightForeArm  7.51957 11.5338 6.7404
RightHand  -0.0977788 5.98445 -1.32902
LeftUpLeg  -4.80627 -19.9247 -1.50957
LeftLeg  18.9764 -10.0152 -3.49905
LeftFoot  -6.28608 0.0372253 -0.395334
LeftToes  1.32783e-010 1.73515e-011 1.59258e-011
349
root  -84.8443 41.0361 0.0478171 -179.865 -44.5175 178.992
RightUpLeg  -4.93504 9.20174 0.092573
RightLeg  18.6264 27.9487 7.86491
RightFoot  -3.33835 0.141196 -2.34012
RightToes  -6.40286e-010 0 -3.6325e-017
Spine  -3.42772 1.21294 10.0198
Spine1  5.135 0.863763 -0.50103
HEad  -27.8274 -59.6712 -21.9288
LeftShoulder1  -0.543044 4.98564 -30.5088
LeftArm  -5.96766 13.9944 -44.2087
LeftForeArm  27.1516 -13.2276 -6.13325
LeftHand  0.0218933 8.62103 2.39517
RightShoulder  -0.926547 -6.10037 29.2189
RightArm  13.0005 9.45533 32.2968
RightForeArm  7.56501 13.4138 5.72815
RightHand  -0.0773649 5.3903 -1.1446
LeftUpLeg  -6.29274 -21.2097 -0.936353
LeftLeg  17.9151 -7.92072 -2.5255
LeftFoot  -4.31542 -0.206601 3.94904
LeftToes  1.32783e-010 1.73515e-011 1.59258e-011
350
root  -84.4839 40.8892 0.108386 -179.863 -41.8937 179.378
RightUpLeg  -6.4449 12.0503 0.701452
RightLeg  19.7439 27.6621 8.36466
RightFoot  -3.81013 0.11748 -2.18308
RightToes  -6.40286e-010 0 -3.6325e-017
Spine  0.587909 0.947511 4.63256
Spine1  1.68228 -0.0535281 5.23866
HEad  -31.0822 -58.5569 -13.5618
LeftShoulder1  -0.573645 5.06062 -30.6681
LeftArm  -4.82961 16.6028 -45.0345
LeftForeArm  26.0127 -16.4191 -5.08668
LeftHand  -0.0545265 8.59465 -0.283402
RightShoulder  -0.937296 -6.12233 29.1548
RightArm  13.8654 10.9 33.1777
RightForeArm  5.89934 15.0253 5.50964
RightHand  -0.101426 5.82223 -1.3753
LeftUpLeg  -6.80205 -17.5436 -0.0168976
LeftLeg  18.2786 -7.57219 -2.46617
LeftFoot  -5.95803 -0.16132 4.16504
LeftToes  1.32783e-010 1.73515e-011 1.59258e-011
351
root  -84.2916 40.8591 0.263579 -179.836 -38.7515 -179.623
RightUpLeg  -7.15065 13.1465 1.38282
RightLeg  18.3753 29.7736 8.04032
RightFoot  -3.96744 -0.00232099 -0.384239
RightToes  -6.40286e-010 0 -3.6325e-017
Spine  2.06479 0.843609 3.3166
Spine1  1.4442 -0.310704 5.94755
HEad  -34.8227 -58.1624 -5.67318
LeftShoulder1  -0.508808 4.8922 -30.3188
LeftArm  -1.52853 17.1011 -45.547
LeftForeArm  22.8383 -17.6002 -5.15414
LeftHand  -0.0174511 8.04001 1.146
RightShoulder  -1.07508 -6.40764 30.3909
RightArm  13.7455 12.7244 34.327
RightForeArm  6.40621 16.454 5.11202
RightHand  -0.0444458 6.41674 -0.782723
LeftUpLeg  -7.33615 -14.8285 1.0224
LeftLeg  17.8112 -5.72235 -1.70894
LeftFoot  -6.76347 -0.118355 3.98173
LeftToes  1.32783e-010 1.73515e-011 1.59258e-011
352
root  -84.1151 40.7917 0.485673 -179.528 -35.1315 -179.623
RightUpLeg  -7.3705 12.4575 1.41432
RightLeg  17.2043 33.7472 7.65577
RightFoot  -5.22358 -0.129173 1.84359
RightToes  -6.40286e-010 0 -3.6325e-017
Spine  3.83524 0.678928 -0.78981
Spine1  1.59388 -1.29145 10.0448
HEad  -37.6423 -56.6612 0.0347313
LeftShoulder1  -0.741884 5.43584 -32.3245
LeftArm  2.25661 16.2989 -44.5795
LeftForeArm  19.7088 -18.0212 -5.45729
LeftHand  -0.00384386 7.24889 2.0261
RightShoulder  -0.661959 -5.41146 28.0592
RightArm  11.7875 12.3717 38.7359
RightForeArm  7.15879 17.9339 4.54427
RightHand  -0.103511 7.44781 -1.33359
LeftUpLeg  -7.50752 -11.6177 1.06828
LeftLeg  17.5974 -4.626 -1.21276
LeftFoot  -7.03587 -0.148678 5.11002
LeftToes  1.32783e-010 1.73515e-011 1.59258e-011
